<svg width="36" height="40" viewBox="0 0 36 40" fill="none" xmlns="http://www.w3.org/2000/svg">
<g clip-path="url(#clip0_2_4)">
<path fill-rule="evenodd" clip-rule="evenodd" d="M18.8939 7.00835C18.8939 6.12603 18.6885 5.25583 18.2939 4.46665C17.9528 3.78449 17.7526 3.04066 17.705 2.27946L17.5909 0.454559L17.4769 2.2794C17.4293 3.0406 17.229 3.78445 16.8879 4.46662C16.4933 5.25582 16.2879 6.12605 16.2879 7.00839V32.9916C16.2879 33.8739 16.4933 34.7442 16.8879 35.5334C17.229 36.2156 17.4293 36.9594 17.4769 37.7207L17.5909 39.5455L17.705 37.7206C17.7526 36.9594 17.9528 36.2156 18.2939 35.5334C18.6885 34.7442 18.8939 33.874 18.8939 32.9916V7.00835ZM11.7787 7.07271C12.1734 7.86189 12.3788 8.73214 12.3788 9.61446V30.3856C12.3788 31.268 12.1734 32.1381 11.7787 32.9274C11.4377 33.6095 11.2374 34.3534 11.1898 35.1145L11.0758 36.9394L10.9617 35.1145C10.9141 34.3534 10.7138 33.6095 10.3728 32.9274C9.97812 32.1381 9.77273 31.268 9.77273 30.3856V9.61446C9.77273 8.73214 9.97812 7.86189 10.3728 7.07271C10.7138 6.39054 10.9141 5.6467 10.9617 4.8855L11.0758 3.06063L11.1898 4.8855C11.2374 5.6467 11.4377 6.39054 11.7787 7.07271ZM9.12121 12.2205C9.12121 11.3381 8.91582 10.4679 8.52117 9.67879C8.1801 8.99657 7.97982 8.25275 7.93224 7.49154L7.81818 5.66667L7.70413 7.49154C7.65655 8.25275 7.45626 8.99657 7.11517 9.67879C6.72058 10.4679 6.51515 11.3381 6.51515 12.2205V27.7795C6.51515 28.6618 6.72058 29.5321 7.11517 30.3212C7.45626 31.0035 7.65655 31.7472 7.70413 32.5085L7.81818 34.3333L7.93224 32.5085C7.97982 31.7472 8.1801 31.0035 8.52117 30.3212C8.91582 29.5321 9.12121 28.6618 9.12121 27.7795V12.2205ZM5.26362 14.8908C5.65821 15.6801 5.86364 16.5502 5.86364 17.4326V22.5674C5.86364 23.4497 5.65821 24.32 5.26362 25.1091C4.92253 25.7913 4.72224 26.5351 4.67466 27.2963L4.56061 29.1212L4.44655 27.2963C4.39897 26.5351 4.19868 25.7913 3.8576 25.1091C3.46301 24.32 3.25758 23.4497 3.25758 22.5674V17.4326C3.25758 16.5502 3.46301 15.6801 3.8576 14.8908C4.19868 14.2087 4.39897 13.4648 4.44655 12.7037L4.56061 10.8788L4.67466 12.7037C4.72224 13.4648 4.92253 14.2087 5.26362 14.8908ZM2.60593 20L2.60606 20.0387V19.9613L2.60593 20ZM0 20.0387L0.000131461 20C0.00604219 20.8691 0.211194 21.7255 0.600022 22.5031C0.941105 23.1853 1.1414 23.9291 1.18897 24.6903L1.30303 26.5152L1.41709 24.6903C1.46466 23.9291 1.66496 23.1853 2.00604 22.5031C2.39486 21.7255 2.60002 20.8691 2.60593 20C2.60002 19.1309 2.39486 18.2746 2.00604 17.497C1.66496 16.8148 1.46466 16.071 1.41709 15.3098L1.30303 13.4849L1.18897 15.3098C1.1414 16.071 0.941105 16.8148 0.600022 17.497C0.211194 18.2746 0.00604221 19.1309 0.000131461 20L0 19.9613V20.0387ZM15.0363 4.46664C15.431 5.25582 15.6364 6.12604 15.6364 7.00837V32.9916C15.6364 33.874 15.431 34.7442 15.0363 35.5334C14.6952 36.2156 14.495 36.9594 14.4473 37.7206L14.3333 39.5455L14.2193 37.7206C14.1717 36.9594 13.9714 36.2156 13.6303 35.5334C13.2357 34.7442 13.0303 33.874 13.0303 32.9916V7.00837C13.0303 6.12604 13.2357 5.25582 13.6303 4.46664C13.9714 3.78447 14.1717 3.04063 14.2193 2.27943L14.3333 0.454559L14.4473 2.27943C14.495 3.04063 14.6952 3.78447 15.0363 4.46664ZM21.5515 4.46664C21.9461 5.25582 22.1515 6.12604 22.1515 7.00837V32.9916C22.1515 33.874 21.9461 34.7442 21.5515 35.5334C21.2104 36.2156 21.0101 36.9594 20.9625 37.7206L20.8485 39.5455L20.7345 37.7206C20.6868 36.9594 20.4866 36.2156 20.1455 35.5334C19.7508 34.7442 19.5455 33.874 19.5455 32.9916V7.00837C19.5455 6.12604 19.7508 5.25582 20.1455 4.46664C20.4866 3.78447 20.6868 3.04063 20.7345 2.27943L20.8485 0.454559L20.9625 2.27943C21.0101 3.04063 21.2104 3.78447 21.5515 4.46664ZM25.4091 9.61446C25.4091 8.73214 25.2037 7.86189 24.809 7.07271C24.468 6.39054 24.2677 5.6467 24.2201 4.8855L24.1061 3.06063L23.992 4.8855C23.9444 5.6467 23.7441 6.39054 23.4031 7.07271C23.0084 7.86189 22.803 8.73214 22.803 9.61446V30.3856C22.803 31.268 23.0084 32.1381 23.4031 32.9274C23.7441 33.6095 23.9444 34.3534 23.992 35.1145L24.1061 36.9394L24.2201 35.1145C24.2677 34.3534 24.468 33.6095 24.809 32.9274C25.2037 32.1381 25.4091 31.268 25.4091 30.3856V9.61446ZM28.0666 9.67879C28.4613 10.4679 28.6667 11.3381 28.6667 12.2205V27.7795C28.6667 28.6618 28.4613 29.5321 28.0666 30.3212C27.7256 31.0035 27.5253 31.7472 27.4777 32.5085L27.3636 34.3333L27.2496 32.5085C27.202 31.7472 27.0017 31.0035 26.6607 30.3212C26.2661 29.5321 26.0606 28.6618 26.0606 27.7795V12.2205C26.0606 11.3381 26.2661 10.4679 26.6607 9.67879C27.0017 8.99657 27.202 8.25275 27.2496 7.49154L27.3636 5.66667L27.4777 7.49154C27.5253 8.25275 27.7256 8.99657 28.0666 9.67879ZM31.9242 17.4326C31.9242 16.5502 31.7189 15.6801 31.3242 14.8908C30.9831 14.2087 30.7829 13.4648 30.7352 12.7037L30.6212 10.8788L30.5072 12.7037C30.4596 13.4648 30.2593 14.2087 29.9182 14.8908C29.5237 15.6801 29.3182 16.5502 29.3182 17.4326V22.5674C29.3182 23.4497 29.5237 24.32 29.9182 25.1091C30.2593 25.7913 30.4596 26.5351 30.5072 27.2963L30.6212 29.1212L30.7352 27.2963C30.7829 26.5351 30.9831 25.7913 31.3242 25.1091C31.7189 24.32 31.9242 23.4497 31.9242 22.5674V17.4326ZM35.1817 20C35.1817 20.0129 35.1818 20.0257 35.1818 20.0387V19.9613C35.1818 19.9743 35.1817 19.9871 35.1817 20ZM32.5759 20C32.5818 20.8691 32.7869 21.7255 33.1758 22.5031C33.5169 23.1853 33.7171 23.9291 33.7648 24.6903L33.8788 26.5152L33.9928 24.6903C34.0404 23.9291 34.2407 23.1853 34.5818 22.5031C34.9706 21.7255 35.1758 20.8691 35.1817 20C35.1758 19.1309 34.9706 18.2746 34.5818 17.497C34.2407 16.8148 34.0404 16.071 33.9928 15.3098L33.8788 13.4849L33.7648 15.3098C33.7171 16.071 33.5169 16.8148 33.1758 17.497C32.7869 18.2746 32.5818 19.1309 32.5759 20ZM32.5759 20C32.5758 19.9871 32.5758 19.9743 32.5758 19.9613V20.0387C32.5758 20.0257 32.5758 20.0129 32.5759 20Z" fill="white"/>
</g>
<defs>
<clipPath id="clip0_2_4">
<rect width="35.8333" height="40" fill="white"/>
</clipPath>
</defs>
</svg>
